<svg width="125" height="40" viewBox="0 0 125 40" fill="none" xmlns="http://www.w3.org/2000/svg">
<path d="M33.3469 11.2352H17.935L19.5717 5.88833H36.2793L37.9841 0H4.77356L10.2291 3.18105L3.1369 27.0728H13.2296L16.162 17.1912H31.5739L33.3469 11.2352Z" fill="#009FE3"/>
<path d="M125 0H114.975L113.066 7.30964C117.771 5.14382 121.795 2.77496 124.932 0.135364L125 0Z" fill="#009FE3"/>
<path d="M95.0626 6.29442H95.4718L96.9038 12.9949C100.314 12.0474 103.587 11.0321 106.656 9.94924L104.473 0H91.9256H87.5612H81.5601L86.6747 3.04569L82.924 15.9729C86.4701 15.3638 89.8798 14.687 93.1531 13.9425L95.0626 6.29442Z" fill="#009FE3"/>
<path d="M79.5826 27.1404H89.6071L91.4484 20.2369C88.175 20.7783 84.7653 21.2521 81.2874 21.5228L79.5826 27.1404Z" fill="#E30613"/>
<path d="M109.452 20.846H109.043L108.02 16.176C105.019 17.1912 101.746 18.1387 98.1997 18.8832L99.9728 27.1404H117.021L122.409 8.73096C119.749 11.0998 115.794 13.2657 110.952 15.0931L109.452 20.846Z" fill="#E30613"/>
<path d="M78.0824 0H68.0579L62.8751 17.5973C62.8069 17.8003 62.7387 17.9357 62.7387 18.0711C66.2166 17.868 69.6263 17.5973 72.9679 17.2589L78.0824 0Z" fill="#009FE3"/>
<path d="M50.5318 17.9357L55.7827 0H49.7816H45.7582H39.4161L44.8034 3.24873L40.5072 18.0711C43.7805 18.2741 47.0539 18.3418 50.4636 18.4095C50.4636 18.2064 50.4636 18.0711 50.5318 17.9357Z" fill="#009FE3"/>
<path d="M40.0981 19.6277C38.8024 25.0423 40.6436 27.3435 54.4189 27.3435C63.0113 27.3435 68.1259 26.1252 70.9219 22.132C69.3534 22.1997 67.8531 22.1997 66.2846 22.1997C56.8738 22.1997 47.5994 21.1168 40.0981 19.6277Z" fill="#E30613"/>
</svg>
